<svg viewBox="0 0 48 48" fill="none" xmlns="http://www.w3.org/2000/svg">
  <rect width="48" height="48" rx="10" fill="#5c7560"/>
  <circle cx="24" cy="24" r="20" stroke="#faf8f5" stroke-width="1.5" opacity="0.3"/>
  <path d="M24 10 L24 38" stroke="#faf8f5" stroke-width="2" stroke-linecap="round"/>
  <path d="M24 16 C20 16 18 14 18 12 C20 12 22 14 24 16" fill="#faf8f5" opacity="0.9"/>
  <path d="M24 22 C20 22 18 20 18 18 C20 18 22 20 24 22" fill="#faf8f5" opacity="0.9"/>
  <path d="M24 28 C20 28 18 26 18 24 C20 24 22 26 24 28" fill="#faf8f5" opacity="0.9"/>
  <path d="M24 16 C28 16 30 14 30 12 C28 12 26 14 24 16" fill="#faf8f5" opacity="0.9"/>
  <path d="M24 22 C28 22 30 20 30 18 C28 18 26 20 24 22" fill="#faf8f5" opacity="0.9"/>
  <path d="M24 28 C28 28 30 26 30 24 C28 24 26 26 24 28" fill="#faf8f5" opacity="0.9"/>
  <circle cx="24" cy="11" r="2" fill="#faf8f5"/>
</svg>
